<svg xmlns="http://www.w3.org/2000/svg" viewBox="0 0 660 290" role="img" aria-label="Branch detection by counting annulus components">
<g transform="translate(40,20)">
<path d="M 10 170 Q 130 70 250 120" fill="none" stroke="#57473a" stroke-width="1" stroke-dasharray="3 3"/>
<circle cx="124.5" cy="109.5" r="34" fill="none" stroke="#c8b894" stroke-width="1"/>
<circle cx="124.5" cy="109.5" r="68" fill="none" stroke="#c8b894" stroke-width="1"/>
<circle cx="9.9" cy="170.1" r="2" fill="#2b211a" opacity="0.45"/>
<circle cx="18.2" cy="164.1" r="2" fill="#2b211a" opacity="0.45"/>
<circle cx="24.4" cy="158.7" r="2" fill="#2b211a" opacity="0.45"/>
<circle cx="31.4" cy="152.8" r="2" fill="#2b211a" opacity="0.45"/>
<circle cx="40.3" cy="148" r="2" fill="#2b211a" opacity="0.45"/>
<circle cx="46.8" cy="141.7" r="2" fill="#2b211a" opacity="0.45"/>
<circle cx="54.6" cy="138.2" r="2" fill="#2b211a" opacity="0.45"/>
<circle cx="64.5" cy="131.5" r="3" fill="#6c1d1a" opacity="1"/>
<circle cx="73.6" cy="129.3" r="3" fill="#6c1d1a" opacity="1"/>
<circle cx="81.2" cy="124.3" r="3" fill="#6c1d1a" opacity="1"/>
<circle cx="88.4" cy="119.2" r="3" fill="#6c1d1a" opacity="1"/>
<circle cx="97.7" cy="115.9" r="2" fill="#2b211a" opacity="0.45"/>
<circle cx="105.9" cy="113.2" r="2" fill="#2b211a" opacity="0.45"/>
<circle cx="114.5" cy="111" r="2" fill="#2b211a" opacity="0.45"/>
<circle cx="124.5" cy="109.5" r="2" fill="#2b211a" opacity="0.45"/>
<circle cx="133.6" cy="107.1" r="2" fill="#2b211a" opacity="0.45"/>
<circle cx="142.6" cy="105.7" r="2" fill="#2b211a" opacity="0.45"/>
<circle cx="151.5" cy="103.7" r="2" fill="#2b211a" opacity="0.45"/>
<circle cx="161.8" cy="104.8" r="3" fill="#6c1d1a" opacity="1"/>
<circle cx="170.4" cy="103.8" r="3" fill="#6c1d1a" opacity="1"/>
<circle cx="178.2" cy="102.9" r="3" fill="#6c1d1a" opacity="1"/>
<circle cx="187.1" cy="103.1" r="3" fill="#6c1d1a" opacity="1"/>
<circle cx="197.2" cy="104.9" r="2" fill="#2b211a" opacity="0.45"/>
<circle cx="206.4" cy="106.4" r="2" fill="#2b211a" opacity="0.45"/>
<circle cx="215.7" cy="109.3" r="2" fill="#2b211a" opacity="0.45"/>
<circle cx="222.4" cy="110.1" r="2" fill="#2b211a" opacity="0.45"/>
<circle cx="233.6" cy="113.5" r="2" fill="#2b211a" opacity="0.45"/>
<circle cx="242.8" cy="116.4" r="2" fill="#2b211a" opacity="0.45"/>
<circle cx="249" cy="120.3" r="2" fill="#2b211a" opacity="0.45"/>
<circle cx="124.5" cy="109.5" r="4.5" fill="#f5efde" stroke="#2b211a" stroke-width="1.6"/>
<text x="130" y="238" fill="#57473a" font-family="EB Garamond, Georgia, serif" font-size="18" font-style="italic" text-anchor="middle">on an edge: 2 branches</text>
</g>
<g transform="translate(360,20)">
<path d="M 130 120 Q 80 90 10 60" fill="none" stroke="#57473a" stroke-width="1" stroke-dasharray="3 3"/>
<path d="M 130 120 Q 200 110 260 40" fill="none" stroke="#57473a" stroke-width="1" stroke-dasharray="3 3"/>
<path d="M 130 120 Q 150 160 215 205" fill="none" stroke="#57473a" stroke-width="1" stroke-dasharray="3 3"/>
<circle cx="130" cy="120" r="34" fill="none" stroke="#c8b894" stroke-width="1"/>
<circle cx="130" cy="120" r="68" fill="none" stroke="#c8b894" stroke-width="1"/>
<circle cx="130" cy="120" r="2" fill="#2b211a" opacity="0.45"/>
<circle cx="122.8" cy="114.8" r="2" fill="#2b211a" opacity="0.45"/>
<circle cx="113.3" cy="110.4" r="2" fill="#2b211a" opacity="0.45"/>
<circle cx="107.3" cy="107" r="2" fill="#2b211a" opacity="0.45"/>
<circle cx="97.3" cy="101.4" r="3" fill="#6c1d1a" opacity="1"/>
<circle cx="89" cy="96.6" r="3" fill="#6c1d1a" opacity="1"/>
<circle cx="82.5" cy="92.7" r="3" fill="#6c1d1a" opacity="1"/>
<circle cx="73.6" cy="89.1" r="3" fill="#6c1d1a" opacity="1"/>
<circle cx="64.5" cy="85.8" r="2" fill="#2b211a" opacity="0.45"/>
<circle cx="56" cy="81.5" r="2" fill="#2b211a" opacity="0.45"/>
<circle cx="47.7" cy="77.1" r="2" fill="#2b211a" opacity="0.45"/>
<circle cx="39.5" cy="72.8" r="2" fill="#2b211a" opacity="0.45"/>
<circle cx="33" cy="70.3" r="2" fill="#2b211a" opacity="0.45"/>
<circle cx="23" cy="66.8" r="2" fill="#2b211a" opacity="0.45"/>
<circle cx="14.2" cy="61.8" r="2" fill="#2b211a" opacity="0.45"/>
<circle cx="139.9" cy="118.8" r="2" fill="#2b211a" opacity="0.45"/>
<circle cx="147.1" cy="117.6" r="2" fill="#2b211a" opacity="0.45"/>
<circle cx="156.2" cy="113.2" r="2" fill="#2b211a" opacity="0.45"/>
<circle cx="166.4" cy="110.3" r="3" fill="#6c1d1a" opacity="1"/>
<circle cx="173.6" cy="106.3" r="3" fill="#6c1d1a" opacity="1"/>
<circle cx="181.4" cy="103.6" r="3" fill="#6c1d1a" opacity="1"/>
<circle cx="190" cy="99.3" r="3" fill="#6c1d1a" opacity="1"/>
<circle cx="198.2" cy="94.3" r="2" fill="#2b211a" opacity="0.45"/>
<circle cx="207.3" cy="89.3" r="2" fill="#2b211a" opacity="0.45"/>
<circle cx="213.8" cy="84.9" r="2" fill="#2b211a" opacity="0.45"/>
<circle cx="220.1" cy="77.6" r="2" fill="#2b211a" opacity="0.45"/>
<circle cx="228.8" cy="73.4" r="2" fill="#2b211a" opacity="0.45"/>
<circle cx="234.1" cy="65.7" r="2" fill="#2b211a" opacity="0.45"/>
<circle cx="242" cy="61" r="2" fill="#2b211a" opacity="0.45"/>
<circle cx="247.2" cy="54.5" r="2" fill="#2b211a" opacity="0.45"/>
<circle cx="255.2" cy="46.8" r="2" fill="#2b211a" opacity="0.45"/>
<circle cx="134.3" cy="127.1" r="2" fill="#2b211a" opacity="0.45"/>
<circle cx="138.4" cy="136.9" r="2" fill="#2b211a" opacity="0.45"/>
<circle cx="144.4" cy="143.7" r="2" fill="#2b211a" opacity="0.45"/>
<circle cx="150.4" cy="151.1" r="3" fill="#6c1d1a" opacity="1"/>
<circle cx="157.3" cy="156.5" r="3" fill="#6c1d1a" opacity="1"/>
<circle cx="162.8" cy="164.1" r="3" fill="#6c1d1a" opacity="1"/>
<circle cx="169.2" cy="169.1" r="3" fill="#6c1d1a" opacity="1"/>
<circle cx="177.1" cy="176.7" r="2" fill="#2b211a" opacity="0.45"/>
<circle cx="184.3" cy="181.2" r="2" fill="#2b211a" opacity="0.45"/>
<circle cx="192.1" cy="186.7" r="2" fill="#2b211a" opacity="0.45"/>
<circle cx="197.1" cy="192.4" r="2" fill="#2b211a" opacity="0.45"/>
<circle cx="205.7" cy="197.4" r="2" fill="#2b211a" opacity="0.45"/>
<circle cx="212.6" cy="203.6" r="2" fill="#2b211a" opacity="0.45"/>
<circle cx="130" cy="120" r="4.5" fill="#f5efde" stroke="#2b211a" stroke-width="1.6"/>
<text x="138" y="110" fill="#2b211a" font-family="EB Garamond, Georgia, serif" font-size="15" font-style="italic" text-anchor="start">v</text>
<text x="130" y="238" fill="#57473a" font-family="EB Garamond, Georgia, serif" font-size="18" font-style="italic" text-anchor="middle">at a branch vertex: 3 branches</text>
</g>
<text x="330" y="278" fill="#57473a" font-family="EB Garamond, Georgia, serif" font-size="14" font-style="italic" text-anchor="middle">annulus  β/2 ≤ dᵋ(A, ·) ≤ β  about a sample point A</text>
</svg>
