<svg xmlns="http://www.w3.org/2000/svg" viewBox="0 0 690 322" role="img" aria-label="The octahedral Rips complex of a hexagon and its contractible shadow">
<polygon points="170,39.8 214.1,177.3 70.2,162.6" fill="#6c1d1a" fill-opacity="0.18" stroke="none"/>
<polygon points="170,260.2 269.8,137.4 125.9,122.7" fill="#6c1d1a" fill-opacity="0.08" stroke="none"/>
<line x1="170" y1="39.8" x2="269.8" y2="137.4" stroke="#2b211a" stroke-width="1.1"/>
<line x1="170" y1="39.8" x2="214.1" y2="177.3" stroke="#2b211a" stroke-width="1.1"/>
<line x1="170" y1="39.8" x2="70.2" y2="162.6" stroke="#2b211a" stroke-width="1.1"/>
<line x1="170" y1="39.8" x2="125.9" y2="122.7" stroke="#2b211a" stroke-width="1.1"/>
<line x1="269.8" y1="137.4" x2="214.1" y2="177.3" stroke="#2b211a" stroke-width="1.1"/>
<line x1="269.8" y1="137.4" x2="170" y2="260.2" stroke="#2b211a" stroke-width="1.1"/>
<line x1="269.8" y1="137.4" x2="125.9" y2="122.7" stroke="#2b211a" stroke-width="1.1" stroke-dasharray="4 4"/>
<line x1="214.1" y1="177.3" x2="170" y2="260.2" stroke="#2b211a" stroke-width="1.1"/>
<line x1="214.1" y1="177.3" x2="70.2" y2="162.6" stroke="#2b211a" stroke-width="1.1"/>
<line x1="170" y1="260.2" x2="70.2" y2="162.6" stroke="#2b211a" stroke-width="1.1"/>
<line x1="170" y1="260.2" x2="125.9" y2="122.7" stroke="#2b211a" stroke-width="1.1" stroke-dasharray="4 4"/>
<line x1="70.2" y1="162.6" x2="125.9" y2="122.7" stroke="#2b211a" stroke-width="1.1" stroke-dasharray="4 4"/>
<circle cx="170" cy="39.8" r="3.6" fill="#2b211a"/>
<text x="170" y="29.8" fill="#57473a" font-family="EB Garamond, Georgia, serif" font-size="14.0" text-anchor="middle">1</text>
<circle cx="170" cy="260.2" r="3.6" fill="#2b211a"/>
<text x="170" y="280.2" fill="#57473a" font-family="EB Garamond, Georgia, serif" font-size="14.0" text-anchor="middle">4</text>
<circle cx="269.8" cy="137.4" r="3.6" fill="#2b211a"/>
<text x="282.8" y="141.4" fill="#57473a" font-family="EB Garamond, Georgia, serif" font-size="14.0" text-anchor="middle">2</text>
<circle cx="214.1" cy="177.3" r="3.6" fill="#2b211a"/>
<text x="220.1" y="195.3" fill="#57473a" font-family="EB Garamond, Georgia, serif" font-size="14.0" text-anchor="middle">3</text>
<circle cx="70.2" cy="162.6" r="3.6" fill="#2b211a"/>
<text x="57.2" y="166.6" fill="#57473a" font-family="EB Garamond, Georgia, serif" font-size="14.0" text-anchor="middle">5</text>
<circle cx="125.9" cy="122.7" r="3.6" fill="#2b211a"/>
<text x="117.9" y="113.7" fill="#57473a" font-family="EB Garamond, Georgia, serif" font-size="14.0" text-anchor="middle">6</text>
<line x1="300" y1="150" x2="370" y2="150" stroke="#57473a" stroke-width="1.2"/>
<path d="M 362 145 L 371 150 L 362 155" fill="none" stroke="#57473a" stroke-width="1.2"/>
<text x="335" y="140" fill="#57473a" font-family="EB Garamond, Georgia, serif" font-size="15.0" font-style="italic" text-anchor="middle">p</text>
<polygon points="520,40 615.3,95 615.3,205 520,260 424.7,205 424.7,95" fill="#6c1d1a" fill-opacity="0.08" stroke="none"/>
<polygon points="520,40 615.3,205 424.7,205" fill="#6c1d1a" fill-opacity="0.14" stroke="#6c1d1a" stroke-width="1.4"/>
<polygon points="615.3,95 520,260 424.7,95" fill="#6c1d1a" fill-opacity="0.14" stroke="#6c1d1a" stroke-width="1.4"/>
<line x1="520" y1="40" x2="615.3" y2="95" stroke="#2b211a" stroke-width="1.0"/>
<line x1="520" y1="40" x2="615.3" y2="205" stroke="#2b211a" stroke-width="1.0"/>
<line x1="520" y1="40" x2="520" y2="260" stroke="#8c7d6a" stroke-width="0.8" stroke-dasharray="1.5 4"/>
<line x1="520" y1="40" x2="424.7" y2="205" stroke="#2b211a" stroke-width="1.0"/>
<line x1="520" y1="40" x2="424.7" y2="95" stroke="#2b211a" stroke-width="1.0"/>
<line x1="615.3" y1="95" x2="615.3" y2="205" stroke="#2b211a" stroke-width="1.0"/>
<line x1="615.3" y1="95" x2="520" y2="260" stroke="#2b211a" stroke-width="1.0"/>
<line x1="615.3" y1="95" x2="424.7" y2="205" stroke="#8c7d6a" stroke-width="0.8" stroke-dasharray="1.5 4"/>
<line x1="615.3" y1="95" x2="424.7" y2="95" stroke="#2b211a" stroke-width="1.0"/>
<line x1="615.3" y1="205" x2="520" y2="260" stroke="#2b211a" stroke-width="1.0"/>
<line x1="615.3" y1="205" x2="424.7" y2="205" stroke="#2b211a" stroke-width="1.0"/>
<line x1="615.3" y1="205" x2="424.7" y2="95" stroke="#8c7d6a" stroke-width="0.8" stroke-dasharray="1.5 4"/>
<line x1="520" y1="260" x2="424.7" y2="205" stroke="#2b211a" stroke-width="1.0"/>
<line x1="520" y1="260" x2="424.7" y2="95" stroke="#2b211a" stroke-width="1.0"/>
<line x1="424.7" y1="205" x2="424.7" y2="95" stroke="#2b211a" stroke-width="1.0"/>
<circle cx="520" cy="40" r="3.6" fill="#2b211a"/>
<text x="520" y="30" fill="#57473a" font-family="EB Garamond, Georgia, serif" font-size="14.0" text-anchor="middle">1</text>
<circle cx="615.3" cy="95" r="3.6" fill="#2b211a"/>
<text x="628.3" y="92.5" fill="#57473a" font-family="EB Garamond, Georgia, serif" font-size="14.0" text-anchor="middle">2</text>
<circle cx="615.3" cy="205" r="3.6" fill="#2b211a"/>
<text x="628.3" y="217.5" fill="#57473a" font-family="EB Garamond, Georgia, serif" font-size="14.0" text-anchor="middle">3</text>
<circle cx="520" cy="260" r="3.6" fill="#2b211a"/>
<text x="520" y="280" fill="#57473a" font-family="EB Garamond, Georgia, serif" font-size="14.0" text-anchor="middle">4</text>
<circle cx="424.7" cy="205" r="3.6" fill="#2b211a"/>
<text x="411.7" y="217.5" fill="#57473a" font-family="EB Garamond, Georgia, serif" font-size="14.0" text-anchor="middle">5</text>
<circle cx="424.7" cy="95" r="3.6" fill="#2b211a"/>
<text x="411.7" y="92.5" fill="#57473a" font-family="EB Garamond, Georgia, serif" font-size="14.0" text-anchor="middle">6</text>
<polygon points="583.5,150 551.8,95 488.2,95 456.5,150 488.2,205 551.8,205" fill="#6c1d1a" fill-opacity="0.32" stroke="#6c1d1a" stroke-width="1.2"/>
<circle cx="520" cy="150" r="4.2" fill="#f5efde" stroke="#6c1d1a" stroke-width="1.6"/>
<text x="534" y="155" fill="#6c1d1a" font-family="EB Garamond, Georgia, serif" font-size="15.0" font-style="italic" text-anchor="start">x</text>
<text x="498" y="174" fill="#6c1d1a" font-family="EB Garamond, Georgia, serif" font-size="15.0" font-style="italic" text-anchor="middle">H</text>
<text x="170" y="312" fill="#57473a" font-family="EB Garamond, Georgia, serif" font-size="18" font-style="italic" text-anchor="middle">ℛ ≃ S²,  π<tspan baseline-shift="sub" font-size="13" font-style="normal" font-family="KaTeX_Main, Georgia, serif">2</tspan>(ℛ) ≅ ℤ</text>
<text x="520" y="312" fill="#57473a" font-family="EB Garamond, Georgia, serif" font-size="18" font-style="italic" text-anchor="middle">Sh(ℛ) contractible; no apex on H</text>
</svg>
